<?xml version="1.0" encoding="UTF-8"?>
<svg version="1.1" xmlns="http://www.w3.org/2000/svg" width="1559" height="1559">
<path d="M0 0 C1.41174988 0.20092242 2.82353535 0.40159498 4.23535156 0.60205078 C89.35387727 12.85202206 168.12250987 48.41147977 244.375 112.5859375 C246.44790576 114.49227047 248.54808634 116.33390065 250.68359375 118.16796875 C255.69514493 122.53882197 260.37276258 127.22655804 265.0625 131.9375 C265.92166016 132.79279297 266.78082031 133.64808594 267.66601562 134.52929688 C272.65332835 139.52422963 277.42179675 144.62923756 282 150 C282.98475614 151.12970969 283.97040149 152.25864501 284.95703125 153.38671875 C291.60142387 161.04512887 297.95150717 168.86126775 304 177 C304.48549316 177.64888184 304.97098633 178.29776367 305.47119141 178.96630859 C352.10751492 241.51575164 381.55316441 314.79262106 392 392 C392.16371094 393.13228027 392.32742188 394.26456055 392.49609375 395.43115234 C397.82002368 433.29815399 397.48917748 474.1755507 392 512 C391.82839355 513.25022949 391.65678711 514.50045898 391.47998047 515.78857422 C387.57118546 543.87670705 380.83498667 571.07006596 372 598 C371.70625488 598.90041016 371.41250977 599.80082031 371.10986328 600.72851562 C357.91152427 640.81291773 337.95843599 678.37418164 314 713 C313.51547363 713.70721191 313.03094727 714.41442383 312.53173828 715.14306641 C306.30632201 724.21531608 299.47962726 732.73525471 292.47070312 741.20898438 C291.20879009 742.74573637 289.96928135 744.30083802 288.734375 745.859375 C274.70695576 763.52749847 258.22883868 781.12083487 240.44921875 795.046875 C237.98028764 797.01571958 235.68537804 799.09829114 233.375 801.25 C212.74794618 819.98705521 188.50259537 835.31100345 164.4375 849.1875 C163.66051758 849.63802734 162.88353516 850.08855469 162.08300781 850.55273438 C153.57523209 855.39354449 144.77242153 859.66507416 136 864 C136.00666183 864.89502731 136.01332367 865.79005463 136.02018738 866.71220398 C136.08145659 875.33902511 136.12654213 883.96576861 136.15543652 892.59276104 C136.17079269 897.02312015 136.19144438 901.45329305 136.22631836 905.88354492 C136.46844553 937.54260587 134.97729875 968.84404525 130.25 1000.1875 C130.12405457 1001.04501862 129.99810913 1001.90253723 129.86834717 1002.78604126 C127.28163786 1020.34534813 123.98172806 1037.7058286 120 1055 C119.57992676 1056.84489014 119.57992676 1056.84489014 119.15136719 1058.72705078 C108.61687188 1104.16389647 92.19984616 1148.0270322 72 1190 C71.46294434 1191.12325684 70.92588867 1192.24651367 70.37255859 1193.40380859 C61.81879861 1211.20770995 52.34855051 1228.19410571 42 1245 C41.44006348 1245.91168945 40.88012695 1246.82337891 40.30322266 1247.76269531 C33.53503075 1258.74004419 26.44213832 1269.46867218 19 1280 C18.48824219 1280.72574219 17.97648437 1281.45148438 17.44921875 1282.19921875 C10.38975577 1292.17865425 3.07992259 1301.89538187 -4.65820312 1311.35839844 C-5.88715446 1312.8619408 -7.10805483 1314.37205448 -8.328125 1315.8828125 C-17.82771141 1327.60352523 -27.70048298 1338.97529696 -38 1350 C-38.63019043 1350.67530762 -39.26038086 1351.35061523 -39.90966797 1352.04638672 C-41.99967719 1354.28337686 -44.09285762 1356.51734795 -46.1875 1358.75 C-46.84073242 1359.44714111 -47.49396484 1360.14428223 -48.16699219 1360.86254883 C-54.52789521 1367.62000689 -60.96700431 1374.18041924 -68.01171875 1380.2265625 C-70.03764981 1382.03358156 -71.92230369 1383.92705839 -73.8125 1385.875 C-77.67768471 1389.80057822 -81.85810991 1393.20868718 -86.15234375 1396.65234375 C-88.98957538 1398.99140576 -91.68291058 1401.43350417 -94.375 1403.9375 C-99.72947451 1408.85333112 -105.39147145 1413.27343026 -111.19726562 1417.63427734 C-113.07725843 1419.05852975 -114.93835558 1420.50488678 -116.796875 1421.95703125 C-150.76436795 1448.41435248 -187.54649953 1470.72212279 -226 1490 C-227.35375732 1490.6798999 -227.35375732 1490.6798999 -228.73486328 1491.37353516 C-253.6718575 1503.80144937 -279.62616555 1514.07274729 -306 1523 C-307.02158203 1523.34869141 -308.04316406 1523.69738281 -309.09570312 1524.05664062 C-368.33515866 1544.13585984 -431.94879596 1556.01390827 -494.57421875 1556.203125 C-496.02041145 1556.21010697 -497.46660387 1556.21714791 -498.91279602 1556.22424316 C-503.50436797 1556.24349821 -508.09589206 1556.2484185 -512.6875 1556.25 C-513.46941711 1556.25058914 -514.25133423 1556.25117828 -515.0569458 1556.25178528 C-538.82959998 1556.26442869 -562.37386984 1555.87426944 -586 1553 C-587.29421875 1552.85014648 -588.5884375 1552.70029297 -589.921875 1552.54589844 C-598.6402747 1551.52339688 -607.32285353 1550.32600461 -616 1549 C-617.17369141 1548.82243164 -618.34738281 1548.64486328 -619.55664062 1548.46191406 C-683.10176941 1538.66289888 -744.1908335 1517.83569265 -802 1490 C-802.97614258 1489.53384277 -803.95228516 1489.06768555 -804.95800781 1488.58740234 C-834.71731145 1474.32367264 -863.02847796 1456.76320179 -889.83105469 1437.54882812 C-891.80728571 1436.13761588 -893.79445376 1434.74443131 -895.7890625 1433.359375 C-903.60756823 1427.90561216 -911.01415044 1422.03253494 -918.37109375 1415.97265625 C-921.16368242 1413.67334126 -923.99485372 1411.43931754 -926.875 1409.25 C-930.91498501 1406.14349638 -934.64823382 1402.74764251 -938.40625 1399.30859375 C-940.99546868 1397.00403315 -943.66143691 1394.84353504 -946.375 1392.6875 C-951.14613216 1388.83415281 -955.44242342 1384.6753349 -959.7277832 1380.30371094 C-962.4189691 1377.56298863 -965.13733221 1374.92687749 -968.0625 1372.4375 C-975.38513085 1366.18275281 -982.09041802 1359.20670071 -988.33203125 1351.8828125 C-990.09918128 1349.88804361 -991.96286412 1348.04328609 -993.875 1346.1875 C-997.8232397 1342.30011949 -1001.25766153 1338.09526024 -1004.72265625 1333.77734375 C-1006.86490351 1331.16475747 -1009.08640571 1328.67190984 -1011.375 1326.1875 C-1016.38976951 1320.66951832 -1020.95550815 1314.8468785 -1025.50244141 1308.94335938 C-1027.05234847 1306.93206817 -1028.61007369 1304.92698316 -1030.16796875 1302.921875 C-1046.79897615 1281.43641139 -1061.77517613 1258.92080029 -1075.53369141 1235.49462891 C-1076.49514187 1233.85891448 -1077.46082074 1232.22567651 -1078.43115234 1230.59521484 C-1093.37515151 1205.45630367 -1105.99436706 1179.07779768 -1117 1152 C-1117.41910645 1150.97938477 -1117.83821289 1149.95876953 -1118.27001953 1148.90722656 C-1130.6577386 1118.54334372 -1140.63986754 1086.94966592 -1148 1055 C-1148.14977295 1054.3523468 -1148.2995459 1053.7046936 -1148.45385742 1053.03741455 C-1154.08532749 1028.58162317 -1157.93103634 1003.89850586 -1161 979 C-1161.09301392 978.26656372 -1161.18602783 977.53312744 -1161.28186035 976.77746582 C-1167.13413474 930.47225114 -1166.86987261 880.28530556 -1161 834 C-1160.90054077 833.19308716 -1160.80108154 832.38617432 -1160.6986084 831.55480957 C-1157.64610483 806.79482978 -1153.59770512 782.31297923 -1148 758 C-1147.71995117 756.77007324 -1147.43990234 755.54014648 -1147.15136719 754.27294922 C-1136.43851029 708.06680346 -1119.61008084 663.63921643 -1099 621 C-1098.17169678 619.28562744 -1098.17169678 619.28562744 -1097.32666016 617.53662109 C-1091.10783365 604.73612798 -1084.69024252 592.14218833 -1077.23583984 580.01416016 C-1075.94252247 577.90632367 -1074.66742172 575.78819616 -1073.39453125 573.66796875 C-1062.68968364 555.90181438 -1051.33301968 538.67751917 -1039 522 C-1038.50145508 521.3198584 -1038.00291016 520.6397168 -1037.48925781 519.93896484 C-1029.69859684 509.31090098 -1021.48385002 499.08172703 -1013 489 C-1012.46842285 488.36787598 -1011.9368457 487.73575195 -1011.38916016 487.08447266 C-1002.82834393 476.93444251 -994.08905614 466.94009545 -984.60546875 457.63671875 C-982.84372757 455.84068577 -981.20364054 453.96917339 -979.5625 452.0625 C-974.16419306 445.8207076 -968.31229575 440.20872554 -962.0546875 434.83984375 C-959.83474772 432.85202695 -957.76648702 430.759476 -955.6875 428.625 C-951.63098138 424.51281731 -947.30451947 420.90565162 -942.796875 417.30078125 C-940.05259185 415.04326341 -937.46642537 412.68044289 -934.875 410.25 C-928.90191549 404.74824928 -922.47834076 399.90959726 -915.99609375 395.02734375 C-912.94229069 392.7269018 -909.95360957 390.36602343 -907 387.9375 C-894.35703892 377.75051953 -880.5847051 368.86638647 -867 360 C-866.25024902 359.51031738 -865.50049805 359.02063477 -864.72802734 358.51611328 C-797.80477064 315.02388324 -721.76931913 284.33713759 -582.0625 259.75 C-581.27379517 259.66682526 -580.48509033 259.58365051 -579.67248535 259.49795532 C-563.7280682 257.83744374 -547.9124571 256.84073688 -531.87890625 256.8671875 C-530.39875777 256.86651093 -528.91860941 256.865538 -527.4384613 256.86428833 C-524.37050291 256.86283115 -521.30257405 256.86490326 -518.23461914 256.86962891 C-514.32588418 256.87536064 -510.41721739 256.87201294 -506.50848484 256.86605644 C-503.46540318 256.862427 -500.42233746 256.86359973 -497.37925529 256.86618423 C-495.9381198 256.86684509 -494.4969828 256.86605498 -493.05584908 256.86370468 C-485.62244203 256.8542249 -478.3682343 256.97960367 -471 258 C-470.7225293 257.11820068 -470.44505859 256.23640137 -470.15917969 255.32788086 C-459.57004353 224.92760392 -437.84440663 196.05006964 -418 171 C-417.02546875 169.75283203 -417.02546875 169.75283203 -416.03125 168.48046875 C-404.15133596 153.41147943 -391.27962686 139.22067107 -377.75 125.625 C-377.10063477 124.97096191 -376.45126953 124.31692383 -375.78222656 123.64306641 C-371.91380753 119.78741768 -367.92919378 116.12297183 -363.79492188 112.55419922 C-361.61251024 110.66447772 -359.49557345 108.70863875 -357.375 106.75 C-351.17076967 101.16713417 -344.63785648 96.05002103 -338 91 C-337.28666504 90.45682129 -336.57333008 89.91364258 -335.83837891 89.35400391 C-251.82105203 25.70010618 -153.5924844 -3.58812876 0 0 Z " fill="#78798C" transform="translate(1164,3)"/>
<path d="M0 0 C1.41174988 0.20092242 2.82353535 0.40159498 4.23535156 0.60205078 C89.35387727 12.85202206 168.12250987 48.41147977 244.375 112.5859375 C246.44790576 114.49227047 248.54808634 116.33390065 250.68359375 118.16796875 C255.69514493 122.53882197 260.37276258 127.22655804 265.0625 131.9375 C265.92166016 132.79279297 266.78082031 133.64808594 267.66601562 134.52929688 C272.65332835 139.52422963 277.42179675 144.62923756 282 150 C282.98475614 151.12970969 283.97040149 152.25864501 284.95703125 153.38671875 C291.60142387 161.04512887 297.95150717 168.86126775 304 177 C304.48549316 177.64888184 304.97098633 178.29776367 305.47119141 178.96630859 C352.10751492 241.51575164 381.55316441 314.79262106 392 392 C392.24556641 393.69842041 392.24556641 393.69842041 392.49609375 395.43115234 C397.82002368 433.29815399 397.48917748 474.1755507 392 512 C391.82839355 513.25022949 391.65678711 514.50045898 391.47998047 515.78857422 C387.57118546 543.87670705 380.83498667 571.07006596 372 598 C371.70625488 598.90041016 371.41250977 599.80082031 371.10986328 600.72851562 C357.91152427 640.81291773 337.95843599 678.37418164 314 713 C313.51547363 713.70721191 313.03094727 714.41442383 312.53173828 715.14306641 C306.30632201 724.21531608 299.47962726 732.73525471 292.47070312 741.20898438 C291.20879009 742.74573637 289.96928135 744.30083802 288.734375 745.859375 C274.70695576 763.52749847 258.22883868 781.12083487 240.44921875 795.046875 C237.98028764 797.01571958 235.68537804 799.09829114 233.375 801.25 C203.30553345 828.56428636 164.33171869 853.86239932 126.140625 867.82421875 C122.70813129 869.10926926 119.36076576 870.53799287 116 872 C86.89804448 884.55878475 57.02490416 892.87063923 26 899 C25.16863525 899.1652417 24.33727051 899.3304834 23.48071289 899.50073242 C8.37589099 902.48896506 -6.51260741 905.012612 -21.92456055 905.65893555 C-24.80923662 905.78477821 -27.60016338 905.91691928 -30.43186951 906.50531006 C-33.01236774 907.00238235 -35.36346808 907.13994573 -37.98852539 907.16113281 C-39.44554871 907.17533264 -39.44554871 907.17533264 -40.93200684 907.18981934 C-41.97667114 907.19421021 -43.02133545 907.19860107 -44.09765625 907.203125 C-45.73849182 907.21357849 -45.73849182 907.21357849 -47.41247559 907.22424316 C-50.96252249 907.24169768 -54.51241185 907.24797272 -58.0625 907.25 C-59.26905243 907.25100708 -60.47560486 907.25201416 -61.71871948 907.25305176 C-78.25741237 907.24367929 -94.47863047 906.91711745 -110.86328125 904.46630859 C-114.31044804 903.9538484 -117.76281727 903.50018077 -121.21875 903.05078125 C-133.88824079 901.36912411 -146.42424233 899.36873099 -158.87792969 896.48681641 C-160.96955262 896.00698482 -163.06547779 895.55375333 -165.1640625 895.10546875 C-176.01987017 892.73627764 -186.52550173 889.44470217 -197.0703125 885.96191406 C-200.04167629 884.98631629 -203.0199318 884.03457968 -206 883.0859375 C-219.36129598 878.7923899 -232.24555024 873.85268142 -245 868 C-245.97018066 867.55672363 -246.94036133 867.11344727 -247.93994141 866.65673828 C-289.88804954 847.35241109 -329.42834132 822.25366512 -363.19140625 790.59765625 C-365.33354917 788.6163975 -367.49880019 786.70464701 -369.7109375 784.8046875 C-374.71461545 780.4443986 -379.38186969 775.76429367 -384.0625 771.0625 C-384.92166016 770.20720703 -385.78082031 769.35191406 -386.66601562 768.47070312 C-391.65340885 763.47568975 -396.42067501 758.36986706 -401 753 C-401.99639185 751.85849787 -402.99375544 750.71784306 -403.9921875 749.578125 C-410.33734462 742.27384137 -416.30333406 734.82615966 -422 727 C-422.60714844 726.19046875 -423.21429687 725.3809375 -423.83984375 724.546875 C-434.42401735 710.3153012 -444.15860901 695.37196389 -453 680 C-453.37511719 679.35659668 -453.75023437 678.71319336 -454.13671875 678.05029297 C-461.71086571 665.01885989 -468.184284 651.48475729 -474.62402344 637.86865234 C-475.7777506 635.46334819 -476.9712362 633.08858493 -478.1953125 630.71875 C-480.16867381 626.80578628 -481.60486425 622.77344373 -483 618.625 C-484.563224 614.07504113 -486.12656312 609.55880063 -488 605.125 C-501.5896428 571.71244849 -507.72274668 534.62087697 -512 499 C-512.12559296 497.98612465 -512.12559296 497.98612465 -512.25372314 496.95176697 C-513.87104151 483.64262406 -514.31294344 470.47561605 -514.26074219 457.07495117 C-514.25006743 453.83297788 -514.26068451 450.59156555 -514.2734375 447.34960938 C-514.28736546 427.69624005 -513.06714428 408.12987114 -510.125 388.6875 C-509.86783203 386.94279419 -509.86783203 386.94279419 -509.60546875 385.1628418 C-508.07655413 375.03308494 -506.20634917 365.00270636 -504 355 C-503.85095215 354.31035156 -503.7019043 353.62070312 -503.54833984 352.91015625 C-498.68485839 330.56066266 -493.07065937 307.20153467 -483.1484375 286.50390625 C-481.94280002 283.87528849 -480.95908916 281.22764958 -480 278.5 C-478.3359759 273.78860647 -476.3716723 269.29471016 -474.2578125 264.76953125 C-473.05642453 262.1242391 -471.99465016 259.45552134 -470.9375 256.75 C-458.07872166 225.80107698 -438.73542889 197.17482836 -418 171 C-417.02546875 169.75283203 -417.02546875 169.75283203 -416.03125 168.48046875 C-404.15133596 153.41147943 -391.27962686 139.22067107 -377.75 125.625 C-377.10063477 124.97096191 -376.45126953 124.31692383 -375.78222656 123.64306641 C-371.91380753 119.78741768 -367.92919378 116.12297183 -363.79492188 112.55419922 C-361.61251024 110.66447772 -359.49557345 108.70863875 -357.375 106.75 C-351.17076967 101.16713417 -344.63785648 96.05002103 -338 91 C-337.28666504 90.45682129 -336.57333008 89.91364258 -335.83837891 89.35400391 C-251.82105203 25.70010618 -153.5924844 -3.58812876 0 0 Z " fill="#AAC0C1" transform="translate(1164,3)"/>
<path d="M0 0 C1.12277344 0.46664062 2.24554688 0.93328125 3.40234375 1.4140625 C23.11030518 10.10182834 40.64836988 22.99727057 56 38 C56.97818915 38.91770972 57.95737559 39.83435745 58.9375 40.75 C77.65799137 58.51798105 93.89748273 82.41166788 102 107 C102.47255158 108.25251575 102.95139338 109.50268246 103.4375 110.75 C104.88944175 114.61918543 106.23470604 118.52430773 107.5625 122.4375 C107.97628906 123.65308594 108.39007812 124.86867188 108.81640625 126.12109375 C117.64272653 153.84415225 117.38884693 185.68425519 112 214 C111.76651855 215.27133789 111.76651855 215.27133789 111.52832031 216.56835938 C106.67749718 242.07148935 95.81695527 268.29480249 80 289 C79.30261719 289.96035156 78.60523438 290.92070313 77.88671875 291.91015625 C72.95386311 298.64916974 67.74698957 304.94355715 62 311 C61.52530273 311.51256348 61.05060547 312.02512695 60.56152344 312.55322266 C46.73845185 327.41631582 30.56267378 339.20392791 12.81884766 348.98583984 C11.6160735 349.65648734 10.42263054 350.34417946 9.23974609 351.04931641 C5.03256825 353.55232095 0.8353766 355.35786026 -3.75 357 C-4.4524585 357.2563623 -5.15491699 357.51272461 -5.87866211 357.77685547 C-7.28073126 358.28812848 -8.68362429 358.79714883 -10.08740234 359.30371094 C-11.71672804 359.89687367 -13.33784147 360.51251523 -14.95703125 361.1328125 C-25.25478772 365.05429697 -35.85890096 367.7303328 -46.6875 369.6875 C-47.66517334 369.86647827 -47.66517334 369.86647827 -48.66259766 370.04907227 C-85.27291405 376.31076749 -125.28095466 371.69594328 -159 356 C-159.65887207 355.71616455 -160.31774414 355.4323291 -160.99658203 355.13989258 C-181.60245136 346.23207734 -199.52633771 332.92313106 -215.58154297 317.3671875 C-216.89351184 316.10263919 -218.22902305 314.86263925 -219.56640625 313.625 C-235.4408577 298.54044903 -247.11623422 279.37291266 -257 260 C-257.33435059 259.35828857 -257.66870117 258.71657715 -258.01318359 258.05541992 C-260.35677838 253.4932443 -262.30769936 248.9028252 -264 244.0625 C-264.25491211 243.33667725 -264.50982422 242.61085449 -264.77246094 241.86303711 C-267.44258365 234.03870211 -269.28433445 226.07861934 -271 218 C-271.20367187 217.10023438 -271.40734375 216.20046875 -271.6171875 215.2734375 C-272.14264887 212.85631518 -272.58432566 210.43837534 -273 208 C-273.185625 206.99839844 -273.37125 205.99679687 -273.5625 204.96484375 C-277.47237763 180.0122219 -276.57452841 152.13791625 -269 128 C-268.54790269 126.41748619 -268.09901047 124.83405517 -267.65234375 123.25 C-263.10246608 107.30837908 -263.10246608 107.30837908 -259.12890625 100.12109375 C-257.96519456 97.93460431 -257.14620546 95.76799759 -256.3125 93.4375 C-248.63187244 73.88402984 -234.47317025 56.90932051 -220 42 C-219.14535156 41.10539063 -218.29070312 40.21078125 -217.41015625 39.2890625 C-203.85628848 25.37118881 -188.05919186 14.17804474 -171 5 C-170.07316406 4.48953125 -169.14632812 3.9790625 -168.19140625 3.453125 C-152.4635291 -4.84583996 -135.39253912 -10.47642317 -118 -14 C-117.19723633 -14.16371094 -116.39447266 -14.32742188 -115.56738281 -14.49609375 C-76.55108978 -22.07085742 -36.04534657 -15.88367211 0 0 Z " fill="#FEFEFE" transform="translate(484,973)"/>
</svg>
